<?xml version="1.0" encoding="UTF-8"?>
<svg id="Ebene_1" data-name="Ebene 1" xmlns="http://www.w3.org/2000/svg" viewBox="0 0 300 300">
  <defs>
    <style>
      .cls-1 {
        fill: #000;
      }

      .cls-1, .cls-2 {
        stroke-width: 0px;
      }

      .cls-2 {
        fill: #a6d6cc;
      }
    </style>
  </defs>
  <circle class="cls-1" cx="150" cy="150" r="149"/>
  <g id="Ebene_1-2" data-name="Ebene 1">
    <g>
      <path class="cls-2" d="M114.96,112.84c-.13,0-2.04-.38-3.7.76-1.53,1.02-1.66,2.68-1.53,3.44.13.51.51.89,1.02.89h0c.51-.13.89-.51.89-1.15,0-.13-.13-1.02.76-1.53,1.02-.64,2.17-.51,2.29-.51.51.13,1.15-.38,1.15-.76-.13-.25-.38-1.02-.89-1.15Z"/>
      <path class="cls-2" d="M130.5,213.17l1.15,2.29,11.6-6.12-.13-.51c-.13-.76-.13-1.53.25-2.29,0-.13.13-.13.13-.25h0l-13,6.88Z"/>
      <path class="cls-2" d="M154.97,203.35c-.25-.51-.64-.89-1.02-1.15-.51-.25-.89-.38-1.4-.51s-1.15-.13-1.78-.13c-.76,0-1.27-.13-1.66-.25s-.64-.25-.76-.51-.13-.51,0-.64c.13-.25.25-.38.51-.51.25-.13.64-.25,1.02-.25s.89.13,1.53.38,1.02.38,1.27.51.51,0,.76-.13.38-.25.38-.38v-.64l-.51-2.55c0-.13,0-.25-.13-.25-.13-.25-.25-.38-.51-.38s-.38,0-.64.13-.38.25-.51.38-.25.38-.38.76l-.25.51c-.64,0-1.27,0-1.91.13s-1.15.38-1.78.64c-.89.51-1.53,1.15-2.04,1.91s-.64,1.66-.38,2.42c.13.38.25.76.38,1.15.25.51.64.89,1.15,1.15s.89.38,1.4.51,1.02.13,1.78.25c.64,0,1.15.13,1.53.13s.64.25.76.51c0,.13.13.25.13.25,0,.25,0,.38-.13.64s-.25.38-.64.51c-.38.25-.76.25-1.15.25s-.89-.25-1.53-.51c-.51-.25-1.02-.51-1.27-.51-.25-.13-.51,0-.76.13s-.38.25-.51.51-.13.51,0,.76l.51,2.8c0,.13,0,.25.13.38.13.25.25.38.51.38s.38,0,.64-.13.38-.25.51-.38.25-.38.38-.76l.38-.76c.76.13,1.4.13,1.91,0,.64-.13,1.27-.38,1.91-.76,1.02-.51,1.66-1.15,2.17-2.04.51-.76.64-1.66.51-2.68-.25-.51-.38-.89-.51-1.27Z"/>
      <path class="cls-2" d="M179.18,194.17c-.13,0-.25-.13-.38-.13-.25-.13-.51-.13-.64-.25-.25-.13-.38-.25-.64-.51l-3.95-3.7.76-1.91c.25.13.64.25.89.25s.51-.13.89-.25c.51-.25.76-.64.89-1.15s.13-1.02-.25-1.53c-.25-.51-.64-.76-1.02-.89s-.89-.13-1.27.13c-.25.13-.51.25-.64.51s-.38.51-.51.89l-2.29,5.86-.51-2.68v-.64c0-.13.13-.38.25-.51,0,0,0-.13.13-.13,0,0,.13-.13.13-.25v-.51c-.13-.13-.13-.25-.38-.25-.13,0-.38,0-.51.13l-3.7,1.91c-.25.13-.51.25-.64.38s-.13.25-.13.38v.13c0,.13.13.13.25.25s.25.13.25.25.13.13.25.25.13.25.13.38l1.66,7.78v.64c0,.13-.13.38-.25.51,0,0,0,.13-.13.25,0,.13-.13.25-.13.38v.25c.13.13.13.25.38.25.13,0,.38,0,.51-.13l3.7-1.91c.25-.13.51-.25.64-.38s.13-.25.13-.51v-.13c0-.13-.13-.13-.25-.25-.13,0-.25-.13-.25-.13l-.25-.25c-.13-.13-.13-.25-.13-.38l-.51-2.17.25-.64,2.17,2.29c.38.38.89.76,1.15.76.38.13.76,0,1.27-.25l2.04-1.02c.38-.25.64-.38.76-.51s.13-.38,0-.51q0-.26-.13-.38Z"/>
      <path class="cls-2" d="M165.8,197.74c-.25-.51-.64-.89-1.02-1.15-.51-.25-.89-.38-1.4-.51s-1.15-.13-1.78-.13c-.76,0-1.27-.13-1.66-.25s-.64-.25-.76-.51-.13-.51,0-.64.25-.38.51-.51c.25-.13.64-.25,1.02-.25s.89.13,1.53.38,1.02.38,1.27.51c.25,0,.51,0,.76-.13s.38-.25.38-.38v-.64l-.51-2.55c0-.13,0-.25-.13-.25-.13-.25-.25-.38-.51-.38s-.38,0-.64.13-.38.25-.51.38-.25.38-.38.76l-.25.51c-.64,0-1.27,0-1.91.13s-1.15.38-1.78.64c-.89.51-1.53,1.15-2.04,1.91s-.64,1.66-.51,2.42c.13.38.25.76.38,1.15.25.51.64.89,1.15,1.15s.89.38,1.4.51,1.02.13,1.78.25c.64,0,1.15.13,1.53.13.38.13.64.25.76.51,0,.13.13.25.13.25,0,.25,0,.38-.13.64s-.25.38-.64.51c-.38.25-.76.25-1.15.25s-.89-.25-1.53-.51c-.51-.25-1.02-.51-1.27-.51-.25-.13-.51,0-.76.13s-.38.25-.51.51-.13.51,0,.76l.51,2.8c0,.13,0,.25.13.38.13.25.25.38.51.38s.38,0,.64-.13.38-.25.51-.38.25-.38.38-.76l.38-.76c.76.13,1.4.13,1.91.13.64-.13,1.27-.38,1.91-.76,1.02-.51,1.66-1.15,2.17-2.04.51-.76.64-1.66.51-2.68-.13-.76-.25-1.15-.38-1.4Z"/>
      <path class="cls-2" d="M119.8,40.56c1.02-.25,1.53-.89,1.78-1.91.25-1.02.25-2.04-.13-3.19-.25-.64-.51-.89-.76-.76s-.51.38-.76.89c-.25.51-.38,1.15-.51,2.04s-.13,1.91,0,3.06c0-.13.13-.13.38-.13Z"/>
      <path class="cls-2" d="M156.88,32.53c.64-.51,1.15-1.27,1.53-2.55.13-.51.25-1.02.25-1.4,0-1.27-.64-1.91-2.04-1.91h-1.66l-2.04,6.63h1.53c1.02-.13,1.91-.25,2.42-.76Z"/>
      <path class="cls-2" d="M160.32,82.63c-1.91-.89-4.46.13-5.61,2.29,2.68.89,5.22,1.91,7.65,3.19.64-2.29-.25-4.59-2.04-5.48Z"/>
      <path class="cls-2" d="M153.95,43.11c.64-.51,1.15-1.4,1.53-2.68.13-.51.25-1.15.25-1.53,0-1.27-.64-1.91-2.17-2.04h-1.78l-2.17,7.01h1.78c1.15-.13,1.91-.25,2.55-.76Z"/>
      <path class="cls-2" d="M84.89,60.95c0,.64.13,1.27.38,1.78.25.25.51.51.76.64.25.13.51,0,.89-.13.25-.13.51-.51.64-.89s.13-.89,0-1.4l-.51-2.17c-.38.13-.76.38-1.15.64-.64.38-.89.89-1.02,1.53Z"/>
      <path class="cls-2" d="M180.71,39.16c.76-.76,1.27-1.66,1.53-2.8.13-.64,0-1.02-.25-1.15s-.64,0-1.02.38-.89.76-1.53,1.53c-.51.76-1.15,1.53-1.66,2.68.13,0,.25.13.38.13.89.25,1.78,0,2.55-.76Z"/>
      <path class="cls-2" d="M150,5.5C70.23,5.5,5.5,70.26,5.5,150.06s64.73,144.44,144.5,144.44,144.5-64.63,144.5-144.56S229.9,5.5,150,5.5ZM244.55,73.07c.76.89,1.02,1.91.89,2.8s-.64,1.78-1.66,2.42c1.66-.13,3.06.13,4.21.76s2.04,1.27,2.8,2.29c.89,1.15,1.27,2.29,1.15,3.57s-.76,2.29-1.91,3.19c-.64.51-1.27.76-1.91,1.02l-6.88,2.55c-.13,0-.25.13-.38.25s-.25.25-.25.38,0,.25.13.38c.13.25.38.38.76.38s.51,0,.51.13c.13.13.13.25,0,.38-.13.13-.25.25-.38.38-.51.38-1.15.64-2.04.64-.76,0-1.66-.25-2.55-.64-.89-.51-1.66-1.27-2.55-2.29-.89-1.27-1.4-2.42-1.4-3.7,0-1.15.51-2.17,1.4-2.93.64-.51,1.66-1.02,2.8-1.27l5.22-1.53c.25-.13.51-.25.76-.25.25-.13.38-.38.38-.64s0-.51-.25-.76c-.25-.38-.76-.64-1.53-.76-.64-.13-1.4,0-2.04.25l-7.14,2.68c-.25.13-.51.25-.64.38-.25.13-.38.38-.38.51-.13.25-.13.51-.13.76s0,.38-.13.51c0,.13-.13.25-.25.25-.25.13-.64.13-.89-.13-.38-.25-.76-.64-1.15-1.15l-4.97-6.5c-.38-.51-.51-.89-.51-1.27s.13-.64.51-.76c.25-.13.64,0,1.02.13s.76.25,1.02.25c.38,0,.76,0,1.4-.25l10.07-3.7c.13,0,.25-.13.38-.25.25-.13.38-.38.38-.51s.13-.38.13-.76c0-.25,0-.51.13-.64,0-.13.25-.25.38-.38.51-.25,1.4.13,2.55.89,1.02.76,2.04,1.78,2.93,2.93ZM234.99,57c.38-.51.89-.76,1.53-1.02s1.27-.25,1.91-.25c.64.13,1.27.38,1.91.89.64.64,1.02,1.4,1.15,2.17.13.89-.25,1.66-.76,2.29-.38.51-.89.76-1.53,1.02s-1.27.25-1.91.25c-.64-.13-1.27-.38-1.78-.89-.64-.64-1.02-1.27-1.15-2.17-.13-.89.13-1.66.64-2.29ZM235.12,63.5c.13.76-.13,1.53-.64,2.29-.38.38-.76.76-1.27,1.02l-9.56,5.86c-.25.13-.38.38-.64.51-.25.25-.38.51-.38.64v1.27c0,.13-.13.25-.25.38-.25.13-.64.13-1.02,0s-.76-.38-1.4-.89l-6.12-5.35c-.51-.38-.76-.76-.76-1.15-.13-.38,0-.64.25-.76s.64-.13,1.02-.13c.38.13.76.13,1.15.13s.76-.25,1.27-.51l9.17-5.74c.25-.13.38-.25.38-.38.13-.25.25-.38.25-.64s0-.38-.13-.76c0-.25-.13-.51,0-.76s.13-.38.38-.51c.51-.25,1.4-.13,2.68.38,1.27.64,2.55,1.4,3.57,2.29,1.27,1.15,1.91,2.04,2.04,2.8ZM123.24,190.22c-.13-.13-.25-.13-.38-.25,0,0-.13,0-.13-.13-.51-.38-.89-1.02-1.27-1.66l-1.91-3.82c-.13-.38-.25-.76-.38-1.15,0-.25-.13-.38-.13-.64v-1.4c0-.25,0-.38.13-.64,0-.25.13-.51.25-.76s.25-.51.38-.64c.13-.25.38-.64.64-.89s.51-.51.76-.76.64-.38.89-.64c.13-.13.38-.13.51-.25h.13c.13,0,.25-.13.38-.13h2.04c.13,0,.25,0,.51.13h.13c.13,0,.25,0,.38.13h.13c.13,0,.25.13.38.13h.13c.13,0,.25.13.38.13h.13c.13.13.25.13.38.25h0c.13.13.25.13.38.25,0,0,.13,0,.13.13q.13.13.25.25h0l.13.13c.13.13.25.25.25.38.25.25.38.64.64,1.02l1.91,3.82c.25.64.51,1.15.51,1.78v.38h0v.76c0,.13,0,.25-.13.51h0c0,.13-.13.38-.13.51-.13.38-.25.64-.38.89-.13.25-.38.64-.64.89-.51.51-1.02,1.02-1.66,1.27-.13.13-.38.13-.51.25h-.13c-.13,0-.25.13-.38.13h-2.04c-.13,0-.25,0-.51-.13h-.13c-.13,0-.25,0-.38-.13h-.13c-.13,0-.25-.13-.38-.13h-.13c-.13,0-.25-.13-.38-.13h-.13c-.25.38-.38.25-.51.13q0,.13,0,0h0ZM97.12,136.42c-1.78-5.74-2.17-11.6-1.27-17.21-5.22-1.91-8.28-7.14-6.63-11.73,1.66-4.72,7.26-6.88,12.62-5.1.25.13.51.13.76.25,5.48-7.9,13.76-14.41,24.08-17.59,8.03-2.55,16.18-2.93,23.7-1.27,0-.13.13-.25.13-.25,2.17-4.72,7.52-7.01,11.72-4.97,4.21,1.91,5.99,7.27,3.82,11.98,6.63,4.72,11.85,11.22,14.4,19.38,6.75,21.03-6.5,44.11-29.44,51.37-23.06,7.27-47.15-3.82-53.9-24.86ZM108.59,193.28l5.48,10.58c.38.76.13,1.78-.64,2.29l-13.25,7.01c-.76.38-1.78.13-2.29-.64l-5.48-10.58c-.38-.76-.13-1.78.64-2.29l13.25-7.01c.89-.51,1.91-.25,2.29.64ZM112.66,185.5c.13-.25.25-.38.38-.64.13-.13.25-.38.38-.51.38-.51.89-.89,1.53-1.15h0c.13-.13.25-.13.51-.25h.13c.13,0,.25-.13.38-.13h1.27c.13.89.25,1.78.76,2.55l1.91,3.82c.51,1.15,1.4,2.04,2.29,2.68-.13.25-.38.64-.51.89-.25.38-.64.64-1.02.89-.13.13-.25.13-.38.25h0c-.13.13-.25.13-.51.25h-.13c-.13,0-.25.13-.38.13h-1.66c-.13,0-.25,0-.38-.13h-.13c-.13,0-.25,0-.25-.13h-.13c-.13,0-.25-.13-.38-.13h-.13c-.13,0-.25-.13-.25-.13h-.13c-.13-.13-.25-.13-.38-.25h0c-.13-.13-.25-.13-.38-.25l-.13-.13q-.13-.13-.25-.25l-.13-.13c-.13-.13-.13-.25-.25-.25v-.13q-.13-.13-.25-.25s0-.13-.13-.13c-.13-.13-.13-.25-.25-.38l-1.02-2.17c-.38-.76-.51-1.53-.51-2.29.13-.51.25-1.15.51-1.66ZM131.01,178.87c-.38-.76-.89-1.53-1.66-2.17.38-.64,1.02-1.27,1.78-1.66h0c.13-.13.25-.13.51-.25h.13c.13,0,.25-.13.38-.13h1.78c.13,0,.25,0,.38.13h.13c.13,0,.25,0,.25.13h.13c.13,0,.25.13.38.13h.13c.13,0,.25.13.25.13h.13c.13.13.25.13.38.25h0c.13.13.25.13.38.25l.13.13q.13.13.25.25l.13.13c.13.13.13.25.25.25v.13q.13.13.25.25v.13c.13.13.13.25.25.38l.51,1.02.51,1.02c.25.64.38,1.15.51,1.78v.51c0,.51-.13.89-.25,1.4,0,.13-.13.25-.13.38-.13.25-.25.51-.51.76-.38.51-.76.89-1.4,1.27-.13.13-.25.13-.38.25-.13.13-.25.13-.51.25h-.13c-.13,0-.25.13-.38.13h-1.78c0-1.15-.25-2.42-.76-3.44l-2.04-3.82ZM133.31,172.63c-1.02,0-2.04.25-2.93.64-1.02.51-1.91,1.27-2.55,2.29-1.02-.51-2.17-.76-3.31-.76s-2.17.25-3.19.76c-1.78.89-3.06,2.42-3.7,4.21-.13.38-.25.64-.25,1.02h-.38c-1.02,0-1.91.25-2.8.64.13-3.19.51-6.37,1.4-8.92,2.93-8.41,10.19-8.16,10.32-8.16h0c3.44.76,7.01,1.27,10.7,1.27,5.1,0,10.07-.76,15.04-2.42,9.56-3.06,17.71-8.8,23.57-16.32.13-.13.25-.38.38-.51.25-.38.64-.89.89-1.27q.13-.13.25-.25c.38-.51.76-1.15,1.15-1.66h0c.25-.51.64-.89.89-1.4,1.15-2.17,2.17-4.21,3.06-6.5,1.4-1.02,2.8-2.29,3.95-3.7,3.31-4.08,4.97-9.56,5.86-13.39.38.25.76.51,1.27.64,1.66.76,3.19,1.27,3.31,1.27h0c2.8.64,5.73,1.15,8.28,1.15h.25c-1.15,4.59-4.97,17.72-11.09,24.48-.51.51-1.02,1.15-1.53,1.66-14.14,7.27-34.91,18.61-52.12,28.3-.25.13-.51.25-.76.38-1.27-2.04-3.44-3.44-5.99-3.44ZM200.21,104.68c6.24,1.15,9.94,8.03,9.05,11.98-.89,3.95-7.52,2.68-12.74,1.53,0,0-9.05-2.55-6.88-7.01,2.04-4.59,4.46-7.52,10.58-6.5ZM193.71,97.16c0-2.8,1.91-5.1,4.08-5.1,2.29,0,4.08,2.29,3.95,5.23,0,2.8-1.91,5.1-4.08,5.1-2.29,0-4.08-2.42-3.95-5.23ZM203.77,97.29c1.4-3.19,4.08-5.1,6.12-4.33,2.04.89,2.68,4.21,1.27,7.39-1.4,3.19-4.08,5.1-6.12,4.33-2.04-.89-2.55-4.21-1.27-7.39ZM188.61,105.96c-1.91.25-3.82-1.66-4.08-4.46-.38-2.68.89-5.1,2.8-5.35s3.82,1.66,4.08,4.46c.38,2.68-.89,5.1-2.8,5.35ZM199.95,142.41l13.25-7.01c.76-.38,1.78-.13,2.29.64l5.48,10.58c.38.76.13,1.78-.64,2.29l-13.25,7.01c-.76.38-1.78.13-2.29-.64l-5.48-10.58c-.38-.89-.13-1.78.64-2.29ZM216.9,109.65c-2.04,1.78-4.71,1.91-5.99.51-1.27-1.53-.64-4.08,1.53-5.86s4.71-1.91,5.99-.51c1.15,1.53.51,4.21-1.53,5.86ZM220.98,46.93c.13-.25.25-.38.25-.64s0-.38-.13-.76c-.13-.25-.13-.51-.13-.76,0-.13.13-.38.25-.51.38-.38,1.27-.38,2.68.13s2.68,1.02,3.82,1.91c1.15.76,1.78,1.53,2.04,2.42.25.76.13,1.53-.38,2.29-.25.38-.64.76-1.02,1.15l-14.91,11.86c-.25.25-.38.38-.51.51-.13.25-.25.51-.25.76s0,.51.13.76c0,.25.13.38,0,.51,0,.13-.13.25-.25.38-.25.13-.64.25-1.02.13s-.89-.38-1.53-.76l-6.75-4.59c-.51-.38-.76-.64-.89-1.02s0-.64.25-.76.64-.25,1.02-.25h1.15c.38-.13.76-.25,1.15-.64l14.53-11.6c.38-.25.51-.38.51-.51ZM195.36,38.9c.38-.38,1.27-.51,2.68-.25,1.4.25,2.8.64,4.08,1.27.89.38,1.53,1.02,1.91,1.66s.51,1.4.25,2.29c1.78-1.02,3.44-1.15,5.1-.25,1.15.64,1.91,1.4,2.29,2.55.38,1.02.25,2.17-.25,3.19-.25.38-.38.76-.64,1.02-.64.76-1.4,1.27-2.17,1.4s-1.66,0-2.55-.38c-.76-.38-1.27-.89-1.53-1.53s-.38-1.27-.38-2.04c0-.51,0-.76-.13-1.02s-.25-.38-.38-.51c-.25-.13-.38-.13-.64,0s-.51.38-.89.64l-6.37,6.76c-.13.13-.25.25-.25.51-.13.25-.13.51-.13.76s.25.51.38.89c.13.25.25.51.25.64s0,.25-.13.51-.38.38-.76.38-.76-.13-1.4-.51l-8.16-3.95c-.51-.25-.89-.51-1.02-.89-.13-.25-.13-.64.13-.89s.51-.38,1.02-.38c.38,0,.76-.13,1.15-.25s.64-.38,1.15-.89l7.39-7.9c.13-.13.13-.25.25-.38.13-.25.13-.38.13-.64,0-.13-.13-.38-.25-.76-.13-.25-.25-.51-.25-.64s0-.25.13-.38ZM168.86,40.43c.13-.64.51-1.53.89-2.29,1.27-2.68,3.19-4.46,5.48-5.35s4.84-1.02,7.65-.25c2.93.76,4.84,1.78,5.99,3.06,1.02,1.27,1.4,2.68,1.02,4.08-.13.38-.25.76-.51,1.15-.76,1.4-2.04,2.29-3.7,2.42-1.78.25-3.7,0-5.86-.51-1.02-.25-2.04-.64-2.93-1.02-.38,1.15-.25,2.17.25,2.8s1.4,1.15,2.55,1.53c.51.13,1.15.25,1.66.25h3.44c.25.13.38.25.25.51-.25.76-.76,1.53-1.53,2.29-.89.76-2.04,1.27-3.31,1.53-1.4.25-2.93.25-4.71-.25-2.55-.64-4.46-1.91-5.73-3.57-1.15-1.78-1.53-3.95-.89-6.37ZM138.53,45.27c.13-.25.25-.51.51-.64.25-.13.38-.25.38-.25.38-.25.64-.51.89-.76s.51-.64.64-1.27l4.71-15.3c.13-.25.13-.64.13-.89s0-.51-.13-.64-.13-.38-.38-.64c-.25-.25-.25-.51-.25-.76,0-.13,0-.25.13-.38.13-.25.25-.51.64-.64s.76-.13,1.53-.13l12.74.25c1.66,0,3.06.25,4.21.76s2.04,1.15,2.68,2.04.89,1.78.89,2.93c0,.64-.13,1.15-.25,1.66-.76,2.42-2.8,3.82-6.12,4.46,1.15.38,2.04.89,2.68,1.78.64.76,1.02,1.78.89,2.93,0,.51-.13,1.15-.38,1.91-.51,1.78-1.66,3.19-3.31,4.08-1.66.89-3.82,1.27-6.75,1.15l-14.78-.38c-.51,0-.89-.13-1.15-.25-.25-.13-.38-.38-.38-.64.25,0,.25-.13.25-.38ZM113.68,35.71c1.53-1.91,3.7-3.31,6.5-4.08,2.93-.76,5.1-.89,6.75-.38,1.53.51,2.55,1.53,2.93,3.06.13.38.13.89.25,1.27.13,1.66-.51,2.93-1.91,4.08-1.4,1.15-3.19,1.91-5.22,2.55-1.02.25-2.17.51-3.06.64.25,1.15.89,1.91,1.66,2.29.76.25,1.78.25,2.93,0,.51-.13,1.02-.38,1.53-.64.51-.25,1.02-.64,1.78-1.15.64-.38,1.02-.64,1.15-.76.25-.13.38,0,.51.38.25.76.13,1.78-.13,2.8-.38,1.02-1.02,2.04-2.17,3.06-1.02,1.02-2.42,1.66-4.08,2.17-2.55.76-4.84.64-6.75-.13-2.04-.76-3.31-2.42-3.95-4.97-.25-.64-.38-1.53-.38-2.42-.51-3.31.13-5.74,1.66-7.78ZM94.7,42.09c.25-.25.64-.51,1.27-.89l1.78-.76,1.15-2.93c.38-1.02.76-1.78,1.27-2.42.51-.51,1.15-1.02,2.17-1.53,1.4-.64,2.29-.38,2.8.64.13.38.25.64.25,1.02l.25,1.66,1.78-.76c.38-.13.76-.25,1.02-.13s.51.25.64.51c0,.13.13.25.13.51.13,1.02-.25,1.91-1.27,2.29l-1.91.89,1.15,9.18c0,.38.13.76.25,1.02.13.38.38.64.64.64s.64,0,1.02-.13.76-.38,1.27-.76c.25-.13.38-.25.64-.38.13-.13.25-.13.38,0s.25.13.25.38c.25.38.13,1.15-.25,2.04-.38.89-1.02,1.91-1.91,2.8s-2.04,1.78-3.44,2.29c-1.53.64-2.8.89-3.95.64s-2.04-1.02-2.55-2.17c-.25-.51-.38-1.15-.38-1.66l-.89-7.39c0-.38-.13-.76-.25-.89-.25-.38-.51-.76-.76-1.02-.38-.25-.76-.38-1.27-.51s-.76-.25-1.02-.51c-.25-.13-.38-.38-.38-.64-.13-.51-.13-.76.13-1.02ZM76.99,53.82c.64-1.4,2.17-2.93,4.33-4.46s4.33-2.42,6.24-2.42c1.91-.13,3.44.76,4.59,2.42.38.64.89,1.4,1.15,2.42l1.53,4.84c0,.13.13.25.13.25.25.25.51.38.76.25s.38-.38.38-.76.13-.51.13-.51c.13-.13.25,0,.38,0,.13.13.25.25.38.38.38.51.51,1.15.51,2.04s-.25,1.66-.76,2.55-1.15,1.53-1.91,2.17c-1.02.64-2.04,1.15-3.06,1.27s-1.91-.13-2.68-.64c-.13,1.15-.38,2.17-1.02,3.06-.51.89-1.27,1.66-2.17,2.29-1.02.76-2.04,1.15-3.06,1.15-1.02.13-1.91-.13-2.68-.51s-1.4-1.02-1.91-1.66c-.25-.25-.38-.64-.51-1.02-.64-1.53-.64-3.06,0-4.46s1.53-2.55,3.06-3.57c1.66-1.15,3.44-1.91,5.35-2.55l-.64-2.42c-.25-1.02-.64-1.78-.89-2.17-.38-.51-.76-.76-1.15-.76-.51,0-1.02.13-1.66.64.38.25.64.51.89.89.51.76.64,1.53.51,2.42s-.76,1.66-1.78,2.42c-1.02.64-1.91,1.02-2.68.89-.89,0-1.4-.38-1.91-1.02-.51-.89-.51-2.04.13-3.44ZM30.6,99.58c.89-2.42,1.78-4.08,2.93-4.97s2.29-1.27,3.31-.89c.89.25,1.4.89,1.66,1.78.25.89.13,1.91-.25,3.06-.38,1.02-.89,1.78-1.66,2.17-.76.38-1.4.51-2.17.25-.51-.13-.89-.51-1.27-.89-.25.64-.25,1.27-.13,1.91.13.51.64,1.15,1.27,1.66.51.25.89.51,1.27.64.51.13,1.02.25,1.4.13s.64-.25.76-.64l.64-2.04c.38-1.15,1.02-1.66,1.66-1.4.13,0,.25.13.38.25.51.25.76.76.76,1.27.13.51,0,1.15-.25,2.04l-.38,1.02,9.81,7.14c.25.13.51.25.64.38.25.13.51.13.76.13s.38-.13.64-.25.38-.13.51-.25.25,0,.38.13c.25.25.38.51.38.89s-.13.89-.38,1.66l-2.68,7.65c-.25.64-.51,1.02-.76,1.15-.25.25-.51.25-.89,0-.25-.13-.38-.51-.51-.89,0-.38-.13-.76-.38-1.02-.13-.25-.51-.64-1.02-1.02l-7.77-5.61c-.25-.25-.64-.38-1.02-.51-.51-.13-.89-.13-1.15-.13s-.76.25-1.15.51c-.25.13-.51.25-.76.38-.13.13-.38.13-.64,0-.38-.13-.64-.38-.76-.76-.13-.38,0-1.02.38-1.91l.25-.89c-.64,0-1.15-.13-1.78-.38-.51-.25-1.15-.51-1.66-.89-1.02-.76-1.66-2.04-1.91-3.7s.64-4.33,1.53-7.14ZM31.24,121.64c.25-1.27.76-2.29,1.78-2.93.89-.64,2.04-.89,3.19-.64.38.13.89.25,1.15.38.89.38,1.53,1.02,2.04,1.66.38.76.51,1.53.38,2.55-.13.89-.51,1.53-1.02,1.91s-1.15.64-1.91.89c-.38.13-.76.25-1.02.38-.25.13-.38.25-.38.51s0,.51.13.64c.13.25.51.38.89.64l8.28,4.21c.13.13.25.13.51.13s.51,0,.76-.13.51-.38.76-.64c.25-.25.38-.38.51-.51.13-.13.25-.13.51,0s.51.25.64.64c.13.25.13.76,0,1.53l-1.53,9.05c-.13.64-.25,1.02-.51,1.27s-.51.25-.89.13c-.25-.13-.51-.38-.64-.89-.13-.38-.25-.76-.51-1.02-.25-.25-.64-.51-1.15-.76l-9.68-4.84c-.13-.13-.25-.13-.51-.13h-.64c-.13.13-.38.25-.64.38-.25.25-.38.38-.64.38-.13.13-.38,0-.51,0-.51-.25-.89-1.02-1.02-2.42s-.13-2.8.13-4.33c.13-1.02.51-1.78,1.02-2.29s1.27-.89,2.04-.89c-1.15-1.4-1.78-2.93-1.53-4.84ZM28.56,143.82c.51-.64,1.15-1.02,2.04-1.15.51,0,1.02,0,1.66.25l9.56,2.42h.38c.13,0,.25,0,.38-.13s.13-.25.13-.38c0-.25-.13-.51-.38-.76-.25-.13-.38-.38-.38-.38,0-.13.13-.25.25-.25.13-.13.38-.13.51-.13.64,0,1.27.13,2.04.64.64.51,1.27,1.15,1.78,2.04.51.89.76,1.91.76,3.06.13,1.4-.13,2.55-.64,3.44s-1.27,1.4-2.17,1.66c1.02.76,1.78,1.66,2.29,2.68.51,1.02.89,2.04.89,3.06.13,1.66-.25,3.06-1.02,4.21s-1.91,1.78-3.31,1.91c-.64,0-1.4,0-2.04-.25l-7.52-1.91c-.25,0-.38-.13-.51-.13-.25,0-.51.13-.64.25s-.25.25-.51.51c-.13.25-.38.38-.51.51s-.38.13-.51.13c-.51-.13-1.02-.89-1.53-2.17s-.76-2.68-.89-4.21c-.13-1.4.13-2.42.64-3.06s1.15-1.02,2.04-1.02c.51,0,1.02,0,1.53.13l7.52,1.91c.25.13.51.13.76.13.38,0,.64-.13.76-.38.13-.25.25-.51.25-.76,0-.51-.13-.76-.38-1.15-.25-.25-.76-.51-1.4-.76l-7.26-1.78c-.25,0-.38-.13-.51-.13-.25,0-.51.13-.64.25s-.25.25-.51.51c-.13.25-.38.38-.51.51s-.38.13-.51,0c-.51-.13-1.02-.76-1.53-2.17-.51-1.27-.76-2.68-.89-4.21-.25-1.15,0-2.17.51-2.93ZM53.79,189.58c-.13.38-.51.64-.89.76-.25,0-.51.13-.76.13l-5.61-.25c-.64,0-1.15-.13-1.53-.38-.38-.25-.64-.64-.76-1.15s-.13-1.02.13-1.53.76-1.27,1.53-2.17c.89-1.02,1.4-1.91,1.66-2.68s.25-1.53,0-2.42c-.13-.64-.38-1.02-.64-1.4-.25-.25-.64-.38-1.15-.38-.13,0-.25,0-.51.13-.51.13-1.02.51-1.27,1.27-.25.64-.64,1.66-1.02,2.93-.38,1.4-.76,2.55-1.15,3.44s-.89,1.78-1.53,2.55-1.66,1.27-2.8,1.66c-.76.25-1.66.38-2.42.25-1.66,0-3.31-.64-4.59-1.91-1.4-1.27-2.29-2.8-2.93-4.72-.38-1.27-.51-2.55-.51-3.7s.13-2.42.51-3.7l-.89-.64c-.64-.38-1.02-.76-1.27-1.15s-.51-.64-.64-1.15-.13-1.02,0-1.4.51-.64.89-.76c.13,0,.38-.13.64,0l5.1.13c.64,0,1.02.13,1.27.25s.51.51.64,1.02.13,1.02-.13,1.4c-.25.51-.64,1.27-1.4,2.29-.64,1.02-1.15,1.91-1.27,2.68-.25.76-.25,1.53,0,2.17.13.51.38.89.89,1.15.38.25.89.25,1.4.13.51-.13,1.02-.51,1.27-1.27.25-.64.64-1.66,1.02-3.06s.76-2.55,1.15-3.44.89-1.78,1.53-2.55,1.53-1.27,2.68-1.66c.76-.25,1.4-.25,2.17-.25,2.04,0,3.7.76,5.1,2.04s2.42,3.06,2.93,5.1c.38,1.53.64,2.93.51,4.08s-.38,2.42-.89,3.82l1.4.89c.64.38,1.15.76,1.4,1.15.25.25.51.76.64,1.15.25.25.25.76.13,1.15ZM60.17,100.09c-1.53,2.8-3.19,4.84-4.71,5.99-1.66,1.27-3.19,1.53-4.46.76-.89-.51-1.4-1.15-1.53-1.91-.13-.76,0-1.66.51-2.55.51-1.02,1.4-1.78,2.42-2.17,1.02-.38,2.04-.25,3.06.25.25.13.51.38.76.51.38-.38.76-.89,1.02-1.27.25-.51.38-1.02.25-1.53-.13-.51-.38-.89-.89-1.15-.51-.25-1.02-.25-1.66,0s-1.4.76-2.42,1.53c-.89.64-1.78,1.27-2.55,1.66s-1.53.64-2.29.76-1.66,0-2.42-.51c-1.66-.89-2.68-2.42-2.93-4.33-.25-2.04.38-4.33,1.78-6.88.89-1.78,1.91-3.19,2.93-4.21,1.02-1.15,1.91-1.78,2.93-2.17.89-.38,1.78-.38,2.42,0,.76.38,1.15,1.02,1.27,1.78s-.13,1.78-.64,2.8c-.51,1.02-1.27,1.78-2.29,2.17-.89.38-1.78.38-2.55,0-.25-.13-.51-.38-.76-.51-.25.25-.51.64-.76.89-.25.51-.38,1.02-.38,1.53s.38.89.76,1.02c.51.25,1.15.25,1.78,0,.64-.38,1.66-.89,2.8-1.91,1.02-.76,1.91-1.4,2.68-1.91s1.53-.76,2.42-.89,1.66,0,2.42.38c.13.13.51.25.89.64,1.27,1.15,1.78,2.68,1.78,4.59.38,1.91-.25,4.21-1.66,6.63ZM64.24,91.17c-.38.13-.64,0-.76-.25s-.13-.64-.13-1.02c.13-.38.13-.76.13-1.15s-.25-.76-.51-1.27l-9.81-15.81c-.13-.25-.25-.38-.38-.38-.25-.13-.38-.25-.64-.25h-.76c-.25,0-.51.13-.76,0-.13,0-.38-.13-.51-.38-.25-.51-.13-1.4.38-2.68s1.4-2.42,2.29-3.57c.89-1.02,1.78-1.66,2.55-1.78s1.53.13,2.29.64c.38.38.76.76,1.02,1.27l5.61,9.05.76-.89c.25-.38.51-.76.38-1.15,0-.38-.13-.89-.51-1.4-.89-1.66-1.4-3.06-1.53-4.46-.13-1.27.38-2.55,1.4-3.82.89-1.02,1.91-1.53,3.06-1.66s2.04.13,2.8.89c.89.76,1.27,1.66,1.27,2.55s-.38,1.78-1.02,2.68c-.64.76-1.4,1.15-2.17,1.27-.76.13-1.4-.13-1.78-.51-.25.13-.25.38-.13.64.13.25.25.76.64,1.27.25.38.38.89.51,1.27,1.15-1.15,2.17-1.78,3.19-2.04s1.78,0,2.55.64c.38.25.64.64.89,1.15l.64.89c0,.13.13.25.25.38.25.25.51.25.64,0s.25-.51.25-.76v-.51c.13-.13.25-.13.38,0,.13,0,.38.13.51.25.51.38.89,1.02,1.15,1.78s.13,1.66-.13,2.55c-.25.89-.76,1.91-1.66,2.8-1.02,1.15-2.17,1.78-3.31,2.17-1.27.25-2.29,0-3.31-.89-.38-.25-.64-.76-1.02-1.27l-.89-1.66c-.25-.38-.38-.64-.64-.76-.25-.25-.51-.25-.76-.25s-.51.25-.76.51l-.51.51,2.93,4.72c.13.25.38.38.51.64.25.25.51.38.64.38h1.27c.13,0,.25.13.38.25.13.25.13.64,0,1.02s-.38.76-.89,1.4l-5.35,6.12c0,.64-.38.89-.64.89ZM111.26,254.09c-4.97,2.17-16.57,5.1-19.37,5.35-1.15.13-2.17-.25-2.8-.89s-.89-1.4-.64-2.29l5.86-20.01v-.13c.13-.38.13-.76,0-1.15l16.06-8.29-1.15-2.29-15.93,8.29c-.38-.38-.76-.76-1.27-.89h-.13c-5.99-1.78-17.58-5.35-19.37-6.12-.89-.38-1.66-1.4-1.78-2.42-.13-.51-.13-1.53.76-2.29l.64-.51c2.93-2.55,10.83-9.56,15.04-12.11.51-.25,2.29-1.4,4.97-2.93l4.33,8.16c.64,1.15,1.78,1.91,3.19,1.91.51,0,1.15-.13,1.53-.38l4.46-2.29,12.36,23.33-4.21,2.29c-1.66.89-2.29,3.06-1.4,4.72l4.59,8.8c-3.31,1.02-5.22,1.91-5.73,2.17ZM134.71,246.06l-13.25,7.01c-.76.38-1.78.13-2.29-.64l-5.48-10.58c-.38-.76-.13-1.78.64-2.29l13.25-7.01c.76-.38,1.78-.13,2.29.64l5.48,10.58c.51.89.13,1.91-.64,2.29ZM136.37,241.6l-4.84-9.18c-.64-1.15-1.78-1.91-3.19-1.91-.51,0-1.15.13-1.53.38l-3.44,1.78c-.76-1.78-1.4-3.31-1.4-3.31,0,0-1.02-2.68.89-4.97,2.17-2.42,6.88-5.35,5.1-8.8-1.91-3.7-6.75-.38-10.7-.51-3.19-.13-5.22-3.06-5.22-3.06l-1.53-2.42,3.82-2.04c1.66-.89,2.29-3.06,1.4-4.72l-4.71-8.8c.38-.25.89-.51,1.27-.76,1.27,1.78,3.31,2.93,5.61,2.93,1.02,0,2.04-.25,2.93-.64,1.27-.64,2.29-1.66,2.93-2.8.76.25,1.66.38,2.55.38,1.15,0,2.17-.25,3.19-.76,1.91-.89,3.19-2.55,3.7-4.33.38,0,.76.13,1.15.13,1.02,0,2.04-.25,2.93-.64,1.66-.76,2.8-2.17,3.31-3.82.64-1.66.51-3.57-.38-5.1l-.38-.76c21.79-12.11,44.85-24.73,58.11-31.36l5.1,9.69c.64,1.15,1.78,1.91,3.19,1.91.51,0,1.15-.13,1.53-.38l5.1-2.68c1.66,3.57,3.19,7.14,2.8,8.16-.51,1.91-4.21,4.33-4.97,4.84h-.13c-1.53.76-2.04,2.68-1.27,4.08.76,1.53,2.68,2.04,4.08,1.27h.13c.64-.25,3.57-1.53,5.73-1.53.38,0,.76,0,1.15.13,1.02.38,2.93,3.06,4.71,6.12l-.89.51-4.21,2.17c-.76.38-1.4,1.15-1.66,2.04-.25.89-.13,1.78.25,2.68l5.35,10.33c-17.97,10.07-60.14,31.87-87.54,45.77ZM241.49,188.95l-13.38,7.01c-.25.13-.51.13-.76.13-.64,0-1.15-.25-1.4-.89l-5.61-10.58c-.38-.76-.13-1.78.64-2.17l13.38-7.01c.25-.13.51-.13.76-.13.64,0,1.15.25,1.4.89l5.61,10.58c.38.76.13,1.66-.64,2.17ZM252.19,172.37c-2.55,3.7-5.99,7.39-9.81,10.84l-4.21-7.9c-.64-1.15-1.78-1.91-3.19-1.91-.51,0-1.15.13-1.53.38l-4.46,2.29-.25.13-12.23-23.2,4.71-2.42c.76-.38,1.4-1.15,1.66-2.04s.25-1.78-.25-2.68l-3.82-7.27c5.86-1.4,11.47-2.17,16.44-2.04,9.68.25,16.69,3.82,20.52,10.33l-23.45,12.37,1.15,2.29,23.45-12.37c2.29,4.84,2.8,12.49-4.71,23.2Z"/>
      <path class="cls-2" d="M147.96,100.86c.13.13.38.13.51.13.38,0,.64-.25.76-.51,0,0,.64-1.27,1.66-1.53s2.04.64,2.04.64c.38.38,1.02.38,1.4,0,.38-.38.38-1.02,0-1.4-.13-.13-1.78-1.78-3.95-1.15-2.04.64-2.93,2.55-2.93,2.68-.13.38.13.89.51,1.15Z"/>
      <path class="cls-2" d="M226.96,157.08c-1.02-2.04-3.44-2.8-5.48-1.66l-1.15.64,8.16,15.55,1.15-.64c2.04-1.02,2.8-3.44,1.66-5.48l-4.33-8.41Z"/>
      <path class="cls-2" d="M152.68,158.1l1.78-.64c7.01-2.68,8.92-12.11,7.77-18.48-1.27-6.37-6.5-21.54-9.94-29.58-3.31-8.16-11.6-9.31-18.6-6.63l-4.71,1.78c-7.01,2.68-10.96,7.39-9.68,15.3s11.72,26.26,15.42,31.62c3.95,5.48,10.96,9.43,17.97,6.63ZM132.16,106.72c2.42-1.02,9.17-3.06,10.19,1.4,1.02,4.59-1.53,9.18-5.35,10.71s-8.92-.13-11.21-4.33c-1.4-2.8.89-5.48,6.37-7.78ZM133.82,142.41c-1.4-2.29-3.19-5.99-4.59-8.92s-2.04-4.59-2.17-5.23.25-1.02.64-.25c.38.76,2.29,3.82,2.8,4.46,1.15,1.27,2.04,1.66,2.93,2.17.38.25.89-.25.76-.64-.38-.89-.89-2.04-1.15-3.19-.38-1.4-.38-3.57-.25-4.72,0-.25.13-.38.25-.38,1.91-.76,4.08-1.66,5.99-2.42,2.04-.76,4.33-1.53,6.37-2.29.13,0,.38,0,.51.13.89.76,2.29,2.29,3.06,3.57.51,1.02,1.02,2.17,1.4,3.06.13.38.76.51,1.02,0,.38-.89.51-2.42.64-3.7.13-2.55-1.02-4.84-1.02-4.97s.51-.38.64-.13c.38.89,2.29,6.12,3.95,11.35,1.53,4.84,2.8,9.82,2.8,10.84.25,2.55.38,3.44.25,5.1,0,.38-.13.89-.51,1.02-.13,0-.38-.13-.51-.51s-.25-1.15-.89-2.04-1.15-1.27-1.78-1.66c-.38-.25-1.02,0-.89.51.13.64.38,1.4.38,2.17.13,1.15,0,2.93-.13,4.08,0,.13-.13.25-.25.38-.89.51-2.04,1.02-3.44,1.66-1.02.38-1.91.76-2.68,1.02-.13,0-.38,0-.51-.13-.89-.76-2.42-2.04-3.06-2.93-.51-.64-.89-1.27-1.27-1.91-.25-.38-.89-.25-1.02.13-.13.76-.13,1.53,0,2.42.13,1.02.76,2.55,1.15,3.44,0,0-.25.38-.64,0-.13-.13-1.66-.89-3.06-2.55-1.91-2.68-4.08-6.12-5.73-8.92Z"/>
      <path class="cls-2" d="M93.3,108.89c-.89,2.55.64,5.48,3.44,6.76.89-3.31,2.17-6.63,3.95-9.69-3.19-1.15-6.5.13-7.39,2.93Z"/>
      <path class="cls-2" d="M219.96,173.78c-1.02-.25-3.7.64-5.48,1.27-2.42,1.27-5.35.25-6.63-2.04-1.27-2.42-.38-5.35,2.04-6.63,1.78-1.15,3.82-2.93,4.08-3.7,0-.38-.38-1.4-.89-2.8l-3.95,2.04h-.13c-4.21,2.17-5.73,7.27-3.57,11.47l.25.51c2.17,4.21,7.26,5.74,11.47,3.57h.13l3.82-2.04c-.38-.89-.89-1.4-1.15-1.66Z"/>
      <path class="cls-2" d="M191.8,180.91c0,.51,0,1.15-.25,1.78.25.25.51.51.64.76l12.36-6.5-1.15-2.29-11.6,6.25Z"/>
      <path class="cls-2" d="M190.39,185.25c-.25-.51-.64-.89-1.15-1.02s-1.02-.25-1.53-.13c1.27-1.02,1.78-2.17,1.53-3.44,0-.25-.13-.51-.25-.76-.25-.51-.64-.89-1.15-1.02-.51-.25-1.02-.25-1.66-.25s-1.27.25-2.04.64l-5.61,2.93c-.25.13-.51.25-.64.38s-.13.25-.13.38v.13c0,.13.13.13.25.25s.25.13.25.25c.13,0,.13.13.25.25s.13.25.13.38l1.66,7.78v.64c0,.13-.13.38-.25.51,0,0,0,.13-.13.25,0,.13-.13.25-.13.38v.25c.13.13.13.25.38.25.13,0,.38,0,.51-.13l6.63-3.44c1.27-.64,2.17-1.4,2.68-2.17s.64-1.66.51-2.55c0-.25,0-.51-.13-.76ZM182.62,181.81l.76-.38c.64-.38,1.02-.25,1.4.38.13.25.13.38.25.76.13.64.13,1.15,0,1.53s-.38.64-.89.89l-.64.38-.89-3.57ZM186.19,189.33c-.13.38-.51.64-.89.89l-.76.38-.76-3.57.76-.38c.64-.38,1.15-.25,1.4.38.13.25.25.51.25.76.13.64.13,1.15,0,1.53Z"/>
    </g>
  </g>
</svg>