<?xml version="1.0" encoding="UTF-8"?>
<svg id="Ebene_1" data-name="Ebene 1" xmlns="http://www.w3.org/2000/svg" viewBox="0 0 120 120">
  <defs>
    <style>
      .cls-1 {
        fill: none;
      }

      .cls-1, .cls-2 {
        stroke: #000;
        stroke-linecap: round;
        stroke-linejoin: round;
        stroke-width: 4px;
      }

      .cls-3, .cls-4 {
        stroke-width: 0px;
      }

      .cls-3, .cls-2 {
        fill: #000;
      }

      .cls-4 {
        fill: #d5bddd;
      }
    </style>
  </defs>
  <g>
    <path class="cls-4" d="M47.8,84.43H5.35c-1.84,0-3.35-1.54-3.35-3.44V5.44c0-1.89,1.5-3.44,3.35-3.44h109.31c1.85,0,3.35,1.54,3.35,3.44v75.56c0,1.89-1.5,3.44-3.35,3.44h-42.45l-12.2,32.02-12.2-32.02Z"/>
    <path class="cls-3" d="M114.65,4c.74,0,1.35.64,1.35,1.44v75.56c0,.79-.6,1.44-1.35,1.44h-43.83l-.98,2.58-9.84,25.83-9.84-25.83-.98-2.58H5.35c-.74,0-1.35-.64-1.35-1.44V5.44c0-.79.6-1.44,1.35-1.44h109.31M114.65,0H5.35C2.39,0,0,2.43,0,5.44v75.56C0,83.99,2.39,86.43,5.35,86.43h41.07l12.51,32.83c.19.5.63.74,1.07.74s.88-.25,1.07-.74l12.51-32.83h41.07c2.95,0,5.35-2.43,5.35-5.44V5.44C120,2.43,117.61,0,114.65,0h0Z"/>
  </g>
  <path class="cls-1" d="M32.55,31.66c-1.96.48-3.93,1.02-5.67,1.97-2.18,1.19-3.88,2.98-5.54,4.73-1.48,1.56-2.99,3.17-3.71,5.13-1.21,3.32.19,7.1,2.77,9.67s6.18,4.12,9.83,5.18c7.8,2.26,16.1,2.57,24.28,2.83,7.98.26,16,.5,23.93-.35,7.6-.81,15.64-2.96,20.28-8.51,2.92-3.49,4.15-8.08,3.46-12.43-.62-3.91-3.39-5.44-6.64-8.08-2.96-2.4-9.36-4.09-13.34-4.26-10.64-.45-21.34-.27-31.92.95-5.98.69-11.92,1.72-17.74,3.15Z"/>
  <path class="cls-2" d="M86.06,59.6c.58-2.49-2.07-4.71-4.75-6.09-5.84-3.01-12.88-4.36-19.85-4.44s-13.88,1.06-20.52,2.71c-2.89.72-6.15,1.88-6.84,4.22-.48,1.62.64,3.44,2.55,4.13"/>
</svg>