<?xml version="1.0" encoding="UTF-8"?>
<svg id="Ebene_1" data-name="Ebene 1" xmlns="http://www.w3.org/2000/svg" viewBox="0 0 120 120">
  <defs>
    <style>
      .cls-1 {
        fill: #b6d7a4;
      }

      .cls-1, .cls-2 {
        stroke-width: 0px;
      }

      .cls-3 {
        fill: #c1dcb0;
        stroke-miterlimit: 10;
      }

      .cls-3, .cls-4 {
        stroke: #000;
        stroke-width: 4px;
      }

      .cls-2, .cls-4 {
        fill: #000;
      }

      .cls-4 {
        stroke-linecap: round;
        stroke-linejoin: round;
      }
    </style>
  </defs>
  <g>
    <path class="cls-1" d="M47.8,84.43H5.35c-1.84,0-3.35-1.54-3.35-3.44V5.44c0-1.89,1.5-3.44,3.35-3.44h109.31c1.84,0,3.35,1.54,3.35,3.44v75.56c0,1.89-1.5,3.44-3.35,3.44h-42.45l-12.2,32.02-12.2-32.02Z"/>
    <path class="cls-2" d="M114.65,4c.74,0,1.35.64,1.35,1.44v75.56c0,.79-.6,1.44-1.35,1.44h-43.83l-.98,2.58-9.84,25.83-9.84-25.83-.98-2.58H5.35c-.74,0-1.35-.64-1.35-1.44V5.44c0-.79.6-1.44,1.35-1.44h109.31M114.65,0H5.35C2.39,0,0,2.43,0,5.44v75.56C0,83.99,2.39,86.43,5.35,86.43h41.07l12.51,32.83c.19.5.63.74,1.07.74s.88-.25,1.07-.74l12.51-32.83h41.07c2.95,0,5.35-2.43,5.35-5.44V5.44C120,2.43,117.61,0,114.65,0h0Z"/>
  </g>
  <g>
    <path class="cls-4" d="M22.14,35.36c12.66-1.77,32.83-6.25,45.23-9.22,4.56,3.17,9.13,6.35,13.69,9.52,6.08,4.23,12.18,8.47,17.61,13.44-3.79,1-5.86,1.72-8.68,2.47-18.22,4.87-36.22,8.58-53.99,14.74-3.59-5.12-5.41-8.77-8.77-13.3-3.53-4.75-6.65-9.86-9.27-14.81l4.19-2.85Z"/>
    <path class="cls-3" d="M23.09,31.6c12.66-1.77,32.83-6.25,45.23-9.22,4.56,3.17,9.13,6.35,13.69,9.52,6.08,4.23,12.18,8.47,17.61,13.44-3.79,1-5.86,1.72-8.68,2.47-18.22,4.87-36.22,8.58-53.99,14.74-3.59-5.12-5.41-8.77-8.77-13.3-3.53-4.75-6.65-9.86-9.27-14.81"/>
  </g>
</svg>