<?xml version="1.0" encoding="UTF-8"?>
<svg id="Ebene_1" data-name="Ebene 1" xmlns="http://www.w3.org/2000/svg" viewBox="0 0 120 120">
  <defs>
    <style>
      .cls-1 {
        fill: #ece769;
      }

      .cls-1, .cls-2 {
        stroke-width: 0px;
      }

      .cls-3 {
        fill: none;
      }

      .cls-3, .cls-4 {
        stroke: #000;
        stroke-linecap: round;
        stroke-linejoin: round;
        stroke-width: 4px;
      }

      .cls-2, .cls-4 {
        fill: #000;
      }
    </style>
  </defs>
  <g>
    <path class="cls-1" d="M47.8,84.43H5.35c-1.84,0-3.35-1.54-3.35-3.44V5.44c0-1.89,1.5-3.44,3.35-3.44h109.31c1.84,0,3.35,1.54,3.35,3.44v75.56c0,1.89-1.5,3.44-3.35,3.44h-42.45l-12.2,32.02-12.2-32.02Z"/>
    <path class="cls-2" d="M114.65,4c.74,0,1.35.64,1.35,1.44v75.56c0,.79-.6,1.44-1.35,1.44h-43.83l-.98,2.58-9.84,25.82-9.84-25.82-.98-2.58H5.35c-.74,0-1.35-.64-1.35-1.44V5.44c0-.79.6-1.44,1.35-1.44h109.31M114.65,0H5.35C2.39,0,0,2.43,0,5.44v75.56C0,83.99,2.39,86.43,5.35,86.43h41.07l12.51,32.83c.19.5.63.74,1.07.74s.88-.25,1.07-.74l12.51-32.83h41.07c2.95,0,5.35-2.43,5.35-5.44V5.44C120,2.43,117.61,0,114.65,0h0Z"/>
  </g>
  <path class="cls-3" d="M10.25,35.43c12.29,1.16,24.83-1.36,36.04-7.24,3.46-1.81,6.85-3.96,10.58-4.76,14.24-3.03,27.01,14.12,41.41,12.25"/>
  <path class="cls-4" d="M104.97,56.21c-10.31.88-20.63,1.61-30.95,2.34-17.03,1.2-34.08,2.4-51.15,2.6l.25-4.37c8.85.47,18.13.86,26.13-2.97,4.29-2.06,7.95-5.23,12.06-7.62s9.08-4.01,13.62-2.57c3.01.96,5.44,3.14,8.06,4.9,7.33,4.94,16.72,6.71,25.35,4.79"/>
</svg>