<?xml version="1.0" encoding="UTF-8"?>
<svg id="Ebene_1" data-name="Ebene 1" xmlns="http://www.w3.org/2000/svg" viewBox="0 0 120 120">
  <defs>
    <style>
      .cls-1 {
        fill: none;
      }

      .cls-1, .cls-2 {
        stroke: #000;
        stroke-linecap: round;
        stroke-linejoin: round;
        stroke-width: 4px;
      }

      .cls-3, .cls-4 {
        stroke-width: 0px;
      }

      .cls-3, .cls-2 {
        fill: #000;
      }

      .cls-4 {
        fill: #8fa9d0;
      }
    </style>
  </defs>
  <g>
    <path class="cls-4" d="M47.8,84.43H5.35c-1.84,0-3.35-1.54-3.35-3.44V5.44c0-1.89,1.5-3.43,3.35-3.43h109.31c1.84,0,3.35,1.54,3.35,3.43v75.56c0,1.89-1.5,3.44-3.35,3.44h-42.45l-12.2,32.02-12.2-32.02Z"/>
    <path class="cls-3" d="M114.65,4c.74,0,1.35.64,1.35,1.44v75.56c0,.79-.6,1.44-1.35,1.44h-43.83l-.98,2.58-9.84,25.83-9.84-25.83-.98-2.58H5.35c-.74,0-1.35-.64-1.35-1.44V5.44c0-.79.6-1.44,1.35-1.44h109.31M114.65,0H5.35C2.39,0,0,2.43,0,5.44v75.56c0,3,2.39,5.44,5.35,5.44h41.07l12.51,32.83c.19.5.63.74,1.07.74s.88-.25,1.07-.74l12.51-32.83h41.07c2.95,0,5.35-2.43,5.35-5.44V5.44C120,2.43,117.61,0,114.65,0h0Z"/>
  </g>
  <path class="cls-1" d="M77.3,18.07c-.28,8.94,2,17.76,7.56,22.94,2.96,2.75,10.1,7.95,14.12,8.24"/>
  <path class="cls-1" d="M99.51,49.37c-5.95,4.5-11.49,8.26-17.13,12.42-2.62,1.93-4.88,3.74-7.67,5.43-5.26,3.19-8.39,5.15-13.65,8.34"/>
  <path class="cls-1" d="M77.01,17.2c-16.36,7.2-25.82,10.09-39.89,15.04"/>
  <path class="cls-1" d="M27.95,26.15c13.54-5.16,27.75-10.89,40.81-14.24"/>
  <path class="cls-1" d="M77.5,17.23c-3.85-1.08-6.61-5.08-10.6-5.32"/>
  <path class="cls-2" d="M59.21,74.81c-11.12-2.13-19.82-11.18-30.79-13.95h-.39c-.05-11.56-.33-34.7-.33-34.7,1.71,2.81,8.83,5.56,8.83,5.56-.54,8.76-.74,17.16,2.98,25.11,3.82,8.18,11.88,15.54,20.66,17.66"/>
</svg>